# xmcd
# 
# Track frame offsets:
#     150
#     18394
#     37798
#     57312
#     74664
#     90487
#     110445
#     126526
#     148432
#     167561
#     185399
#     203658
#     222128
#     240007
#     258203
#     275129
#     288096
#     306465
#     323405
# 
# Disc length: 4493
# 
# Revision: 1
# Processed by: cddbd v1.5.2PL0 Copyright (c) Steve Scherf et al.
# Submitted via: BonkEnc v1.0.5
# 
DISCID=14118b13
DTITLE=Various Artist - I Love R&B Vol. 2
DYEAR=2006
DGENRE=R&B
TTITLE0=LL Cool J - Around The Way Girl
TTITLE1=Shanice - I Love Your Smile
TTITLE2=St. Lunatics - Groovin' Tonight Featuring Brian McKNIGHT
TTITLE3=Honeyz - Summertime
TTITLE4=Third World - Cool Meditation
TTITLE5=The Wailing Souls - They Never Know
TTITLE6=Mya - Fallen
TTITLE7=Heavy D and The Boyz - Is It Good To You
TTITLE8=Gabrielle - I Wish
TTITLE9=New Edition - Mr. Telephone Man
TTITLE10=702 - Star Featuring Clipse
TTITLE11=Zhane - Hey Mr. D.J.
TTITLE12=Yasmeen - Blue Jeans
TTITLE13=The Style Council - My Ever Changing Moods
TTITLE14=Common - GO!
TTITLE15=Stevie Wonder - My Cherie Amour
TTITLE16=Aswad - Best Of My Love
TTITLE17=Marvin Gaye - What's Going On
TTITLE18=Jimmy Cliff - Many Rivers To Cross
EXTD=
EXTT0=
EXTT1=
EXTT2=
EXTT3=
EXTT4=
EXTT5=
EXTT6=
EXTT7=
EXTT8=
EXTT9=
EXTT10=
EXTT11=
EXTT12=
EXTT13=
EXTT14=
EXTT15=
EXTT16=
EXTT17=
EXTT18=
PLAYORDER=
